<svg width="46" height="46" viewBox="0 0 46 46" fill="none" xmlns="http://www.w3.org/2000/svg">
<rect x="0.5" y="0.5" width="45" height="45" rx="10.5" fill="url(#paint0_linear_877_200)"/>
<rect x="0.5" y="0.5" width="45" height="45" rx="10.5" stroke="white"/>
<path d="M21.9915 30.3665L21.9842 31.9921L19.0105 31.9987C17.3749 32.0025 16.0283 31.9977 16.018 31.9878C15.989 31.96 15.9974 20.3725 16.0267 19.9891C16.1042 18.977 16.4003 18.0445 16.9164 17.1889C17.7995 15.7243 19.2644 14.6498 20.9912 14.2C21.6293 14.0337 21.9139 14.0008 22.7236 14C23.477 13.9992 23.6728 14.0166 24.2443 14.1356C25.0079 14.2945 25.8966 14.6656 26.574 15.1087C27.2928 15.5786 28.0252 16.313 28.4926 17.0322C28.6544 17.2813 28.9225 17.7992 29.0372 18.0832C29.3519 18.8649 29.4845 19.5633 29.4825 20.4325C29.4808 21.1146 29.4021 21.6589 29.2197 22.2463C28.9038 23.2639 28.3475 24.1588 27.5369 24.9528C27.3371 25.1484 27.1703 25.3121 27.1655 25.3166C27.1611 25.3214 27.2741 25.4007 27.4167 25.4931C28.5182 26.2067 29.4981 27.2711 30.1028 28.4115C30.499 29.159 30.7356 29.8422 30.8862 30.6754C30.9585 31.0737 31.0271 31.9467 30.9892 31.983C30.9761 31.9955 29.718 32.0027 28.1934 31.9987C25.7543 31.9929 25.4209 31.9873 25.4158 31.952C25.4125 31.9299 25.4013 31.8052 25.3904 31.6749C25.3427 31.1004 25.064 30.4346 24.6848 29.9898C24.0724 29.2717 23.2049 28.8371 22.2286 28.7591L21.9987 28.7407L21.9915 30.3665ZM20.7613 22.9911C20.7716 23.001 21.7417 23.0061 22.9167 23.0023L25.0534 22.9954L25.062 22.883C25.0768 22.6868 24.9867 22.1411 24.8857 21.8151C24.8285 21.6304 24.7136 21.357 24.6072 21.1533C23.9663 19.9248 22.7549 19.0958 21.3285 18.91C21.1675 18.8889 20.9697 18.8716 20.8891 18.8713L20.7426 18.8708V20.9219C20.7426 22.0501 20.751 22.9812 20.7613 22.9911Z" fill="white"/>
<defs>
<linearGradient id="paint0_linear_877_200" x1="23" y1="1" x2="23" y2="45" gradientUnits="userSpaceOnUse">
<stop stop-color="#2550B5"/>
<stop offset="1" stop-color="#0F2D88"/>
</linearGradient>
</defs>
</svg>
